<?xml version="1.0" encoding="UTF-8"?>
<svg xmlns="http://www.w3.org/2000/svg" version="1.1" viewBox="0 0 595.3 841.9">
  <defs>
    <style>
      .cls-1 {
        fill: #231f20;
      }

      .cls-2 {
        fill: #fff;
        stroke: #231f20;
        stroke-miterlimit: 10;
      }
    </style>
  </defs>
  <!-- Generator: Adobe Illustrator 28.7.2, SVG Export Plug-In . SVG Version: 1.2.0 Build 154)  -->
  <g>
    <g id="Layer_1">
      <g id="Layer_1-2" data-name="Layer_1">
        <g>
          <path class="cls-2" d="M460.6,556.1c-33.7,11.5,34.3,41.1,68.3,54.4,3.4,1.3,2.2,6.3-1.4,6.1-79.7-4.7-145.3-37.1-164.7-47.6-3.9-2.1-8.3-3.2-12.8-3.2h-180.7c-75,0-136.4-61.4-136.4-136.4v-.4c0-75,61.4-136.4,136.4-136.4h240.8c75,0,136.4,61.4,136.4,136.4v.2c0,57.3-35.8,106.7-86.1,126.9"/>
          <path class="cls-1" d="M527.3,620.5h-.5c-80.7-4.8-147.5-37.9-166-47.9-3.3-1.8-7.1-2.8-10.9-2.8h-180.2c-77.4,0-140.4-63-140.4-140.4s63-140.4,140.4-140.4h240c77.4,0,143.9,62,140.4,140.4-1.9,41.8-22.7,73-22.7,73-13,21.5-38.3,46.2-65.7,57.4l-1.5-3.7,1.3,3.7c-4,1.4-6.4,3-6.4,4.5s1.8,13.8,74.8,42.4c3.3,1.3,5.1,4.7,4.3,8.2-.7,3.4-3.6,5.6-6.9,5.6ZM169.8,297c-73,0-132.5,59.4-132.5,132.5s59.4,132.5,132.5,132.5h180.2c5.1,0,10.2,1.3,14.7,3.7,17.8,9.6,81,41,157.8,46.7-75.6-30.2-75.3-43.7-75.2-48.2.1-5.2,4.1-9.1,11.8-11.8h0c24.2-9.8,44.9-26.3,59.8-47.9,15.3-22.2,23.4-48.1,23.4-75,0-73-59.4-132.5-132.5-132.5h-240,0Z"/>
        </g>
      </g>
    </g>
  </g>
</svg>