<?xml version="1.0" encoding="UTF-8"?>
<svg xmlns="http://www.w3.org/2000/svg" version="1.1" viewBox="0 0 595.3 841.9">
  <defs>
    <style>
      .cls-1 {
        fill: #231f20;
      }

      .cls-2 {
        fill: #fff;
        stroke: #231f20;
        stroke-miterlimit: 10;
      }
    </style>
  </defs>
  <!-- Generator: Adobe Illustrator 28.7.2, SVG Export Plug-In . SVG Version: 1.2.0 Build 154)  -->
  <g>
    <g id="Layer_1">
      <g>
        <path class="cls-2" d="M327.4,357.3c-21.3,7.3,21.7,26,43.2,34.5,2.1.8,1.4,4-.9,3.9-50.5-3-92-23.5-104.2-30.1s-5.3-2.1-8.1-2.1h-114.4c-47.5,0-86.4-38.9-86.4-86.4v-.3c0-47.5,38.9-86.4,86.4-86.4h152.5c47.5,0,86.4,38.9,86.4,86.4h0c0,36.4-22.6,67.7-54.5,80.5"/>
        <path class="cls-1" d="M369.6,398.1c0,0-.2,0-.3,0-51.1-3-93.4-24-105.1-30.4-2.1-1.1-4.5-1.8-6.9-1.8h-114.1c-49,0-88.9-39.9-88.9-88.9s39.9-88.9,88.9-88.9h151.9c49,0,88.9,39.9,88.9,88.9s-5.4,35.4-15.7,50.3c-10,14.5-24,25.7-40.3,32.2l-.9-2.3.8,2.4c-2.5.9-4.1,1.9-4.1,2.8,0,.8,1.1,8.8,47.3,26.9,2.1.8,3.2,2.9,2.8,5.2-.5,2.1-2.2,3.5-4.4,3.5ZM143.3,193.3c-46.2,0-83.9,37.6-83.9,83.9s37.6,83.9,83.9,83.9h114.1c3.2,0,6.4.8,9.3,2.4,11.3,6.1,51.2,26,99.9,29.5-47.9-19.1-47.7-27.6-47.6-30.5,0-3.3,2.6-5.8,7.5-7.5h0c15.3-6.2,28.4-16.7,37.9-30.4,9.7-14,14.8-30.5,14.8-47.5,0-46.2-37.6-83.9-83.9-83.9h-151.9Z"/>
      </g>
    </g>
  </g>
</svg>