<?xml version="1.0" encoding="UTF-8"?>
<svg xmlns="http://www.w3.org/2000/svg" version="1.1" viewBox="0 0 595.3 841.9">
  <defs>
    <style>
      .cls-1 {
        fill: #231f20;
      }

      .cls-2 {
        fill: #fff;
        stroke: #231f20;
        stroke-miterlimit: 10;
      }
    </style>
  </defs>
  <!-- Generator: Adobe Illustrator 28.7.2, SVG Export Plug-In . SVG Version: 1.2.0 Build 154)  -->
  <g>
    <g id="Layer_1">
      <g id="Layer_1-2" data-name="Layer_1">
        <g id="Layer_1-2">
          <g>
            <path class="cls-2" d="M119.1,556.1c-50.3-20.2-86.1-69.6-86.1-126.9v-.2c0-75,61.4-136.4,136.4-136.4h240.8c75,0,136.4,61.4,136.4,136.4v.4c0,75-61.4,136.4-136.4,136.4h-180.7c-4.5,0-8.9,1.1-12.8,3.2-19.4,10.5-85,42.9-164.7,47.6-3.6.2-4.8-4.8-1.4-6.1,34-13.3,102-42.9,68.3-54.4"/>
            <path class="cls-1" d="M52.2,620.5c-3.3,0-6.2-2.2-6.9-5.6-.8-3.5,1-6.9,4.3-8.2,73-28.6,74.8-40.9,74.8-42.4s-2.4-3.1-6.4-4.5l1.3-3.7-1.5,3.7c-27.4-11.2-52.7-35.9-65.7-57.4,0,0-20.8-31.2-22.7-73-3.5-78.4,63-140.4,140.4-140.4h240c77.4,0,140.4,63,140.4,140.4,0,77.4-63,140.4-140.4,140.4h-180.2c-3.8,0-7.6,1-10.9,2.8-18.5,10-85.3,43.1-166,47.9h-.5s0,0,0,0ZM409.7,297h-240c-73.1,0-132.5,59.5-132.5,132.5s8.1,52.8,23.4,75c14.9,21.6,35.6,38.1,59.8,47.9h0c7.7,2.7,11.7,6.6,11.8,11.8,0,4.5.4,18-75.2,48.2,76.8-5.7,140-37.1,157.8-46.7,4.5-2.4,9.6-3.7,14.7-3.7h180.2c73.1,0,132.5-59.4,132.5-132.5s-59.5-132.5-132.5-132.5h0Z"/>
          </g>
        </g>
      </g>
    </g>
  </g>
</svg>